<svg viewBox="0 0 10 10" xmlns="http://www.w3.org/2000/svg"><path fill="#151d1d" d="M0 0h10v10H0z"/><path fill="#def5f1" d="M5.087 1.5c-.038 0-.075.03-.098.068l-.706 1.359a.107.107 0 0 1-.098.067H3.126C2.503 2.994 2 3.497 2 4.121v3.311c0 .038.03.068.068.068h5.864A.068.068 0 0 0 8 7.432V3.07C8 3.024 7.97 3 7.932 3h-.608c-.037 0-.075-.03-.097-.067l-.706-1.36c-.022-.037-.053-.067-.098-.067H5.064zM3.142 3.753c.21 0 .375.165.375.375a.372.372 0 0 1-.375.376.372.372 0 0 1-.376-.376c0-.21.165-.375.376-.375zm2.628 0c.826 0 1.502.676 1.502 1.501 0 .827-.676 1.503-1.502 1.503a1.506 1.506 0 0 1-1.502-1.503c0-.825.676-1.501 1.502-1.501zm0 .75a.753.753 0 0 0-.751.751c0 .414.338.752.75.752a.753.753 0 0 0 .752-.752.753.753 0 0 0-.751-.75z"/></svg>